# xmcd CD database file
#
# Track frame offsets:
#	150
#	51482
#	78375
#	165880
#	197740
#	218310
#
# Disc length: 3730 seconds
#
# Revision: 0
# Processed by: cddbd v1.5PL3 Copyright (c) Steve Scherf et al.
# Submitted via: CDex 1.51
#
DISCID=430e9006
DTITLE=渋さ知らズ - BE COOL
DYEAR=1998
DGENRE=Jazz
TTITLE0=アングラーズの決闘
TTITLE1=DO-DA
TTITLE2=行方知れズ
TTITLE3=大沼ブルース
TTITLE4=HAZURE
TTITLE5=犬姫のテーマ
EXTD=YEAR: 1998
EXTT0=
EXTT1=
EXTT2=
EXTT3=
EXTT4=
EXTT5=
PLAYORDER=
